<svg xmlns="http://www.w3.org/2000/svg" height="60px" viewBox="0 0 24 30" fill="none" x="0px" y="0px"><path fill-rule="evenodd" clip-rule="evenodd" d="M1.25 4C1.25 2.48122 2.48122 1.25 4 1.25H20C21.5188 1.25 22.75 2.48122 22.75 4V15C22.75 15.4142 22.4142 15.75 22 15.75C21.5858 15.75 21.25 15.4142 21.25 15V4C21.25 3.30964 20.6904 2.75 20 2.75H4C3.30964 2.75 2.75 3.30964 2.75 4V20C2.75 20.6904 3.30964 21.25 4 21.25H20C20.6904 21.25 21.25 20.6904 21.25 20V19C21.25 18.5858 21.5858 18.25 22 18.25C22.4142 18.25 22.75 18.5858 22.75 19V20C22.75 21.5188 21.5188 22.75 20 22.75H4C2.48122 22.75 1.25 21.5188 1.25 20V4Z" fill="black"/><path fill-rule="evenodd" clip-rule="evenodd" d="M13.25 5C13.25 4.58579 13.5858 4.25 14 4.25H18C18.9665 4.25 19.75 5.0335 19.75 6V10C19.75 10.4142 19.4142 10.75 19 10.75C18.5858 10.75 18.25 10.4142 18.25 10V6C18.25 5.86193 18.1381 5.75 18 5.75H14C13.5858 5.75 13.25 5.41421 13.25 5Z" fill="black"/><path fill-rule="evenodd" clip-rule="evenodd" d="M10.75 19C10.75 19.4142 10.4142 19.75 10 19.75H6C5.0335 19.75 4.25 18.9665 4.25 18V14C4.25 13.5858 4.58579 13.25 5 13.25C5.41421 13.25 5.75 13.5858 5.75 14V18C5.75 18.1381 5.86193 18.25 6 18.25H10C10.4142 18.25 10.75 18.5858 10.75 19Z" fill="black"/></svg>