<svg xmlns="http://www.w3.org/2000/svg" width="60px" xmlns:xlink="http://www.w3.org/1999/xlink" version="1.1" x="0px" y="0px" viewBox="0 0 100 125" style="enable-background:new 0 0 100 100;" xml:space="preserve"><g><path d="M74.97,33.77L50,46.83L25.03,33.77c-0.98-0.51-2.19-0.13-2.7,0.85s-0.13,2.19,0.85,2.7L48,50.3v28.06c0,1.1,0.9,2,2,2   s2-0.9,2-2V50.3l24.82-12.98c0.98-0.51,1.36-1.72,0.85-2.7C77.16,33.64,75.95,33.26,74.97,33.77z"/><path d="M85.9,24.67C85.9,24.66,85.9,24.66,85.9,24.67L53.24,5.87c-2-1.15-4.49-1.15-6.49,0L14.1,24.66   c-2.01,1.16-3.26,3.32-3.26,5.64v35.32c0,2.32,1.25,4.48,3.26,5.64l3.5,2.01v14.09c0,4.21,3.42,7.63,7.63,7.63s7.63-3.42,7.63-7.63   v-5.31l13.9,8c2,1.15,4.49,1.15,6.49,0l32.65-18.8c2.01-1.16,3.26-3.32,3.26-5.64V30.3C89.15,27.98,87.91,25.82,85.9,24.67z    M85.15,65.63c0,0.89-0.48,1.72-1.25,2.17L51.25,86.6c-0.77,0.44-1.73,0.44-2.5,0l-16.89-9.73c-0.62-0.36-1.38-0.35-2,0   c-0.62,0.36-1,1.02-1,1.73v8.77c0,2-1.63,3.63-3.63,3.63s-3.63-1.63-3.63-3.63V72.12c0-0.72-0.38-1.38-1-1.73l-4.5-2.59   c-0.77-0.45-1.25-1.28-1.25-2.17V30.3c0-0.89,0.48-1.72,1.25-2.17l32.65-18.8C49.14,9.11,49.57,9,50,9s0.86,0.11,1.25,0.33   l32.65,18.8c0.77,0.45,1.25,1.28,1.25,2.17V65.63z"/></g></svg>