<svg xmlns="http://www.w3.org/2000/svg" height="80px" viewBox="0 0 120 150" x="0px" y="0px"><title>318 Ice Cube</title><path d="M102.34,36.66,87.83,32.77a10.33,10.33,0,0,0-12.65,7.3L71.29,54.59a10.33,10.33,0,0,0,7.3,12.64l14.52,3.89a10.31,10.31,0,0,0,12.65-7.3l3.89-14.52A10.34,10.34,0,0,0,102.34,36.66Zm4.29,11.84L102.74,63a7.2,7.2,0,0,1-8.82,5.09L79.4,64.21a7.2,7.2,0,0,1-5.09-8.82L78.2,40.88A7.2,7.2,0,0,1,87,35.79l14.52,3.89A7.2,7.2,0,0,1,106.63,48.49Z"/><path d="M101.73,45.71l-.1,0a1.5,1.5,0,0,0-1.82,1l-1.62,5.74a1.41,1.41,0,0,0,1,1.73l.1,0a1.49,1.49,0,0,0,1.82-1l1.62-5.75A1.4,1.4,0,0,0,101.73,45.71Z"/><path d="M98.55,57.15a1.45,1.45,0,0,0-.36,0,1.39,1.39,0,0,0-1.34,1l-.72,2.69a1.39,1.39,0,0,0,2.7.72l.72-2.68A1.39,1.39,0,0,0,98.55,57.15Z"/><path d="M47.68,52.9a10.25,10.25,0,0,0,1-7.84L44.82,30.55a10.34,10.34,0,0,0-10-7.66,10.19,10.19,0,0,0-2.68.36L17.66,27.13a10.33,10.33,0,0,0-7.3,12.65L14.25,54.3a10.34,10.34,0,0,0,10,7.66,10.22,10.22,0,0,0,2.68-.36l14.52-3.89A10.26,10.26,0,0,0,47.68,52.9ZM26.09,58.58a7.2,7.2,0,0,1-8.82-5.09L13.38,39a7.2,7.2,0,0,1,5.09-8.82L33,26.26a7.2,7.2,0,0,1,8.82,5.09l3.89,14.52a7.2,7.2,0,0,1-5.09,8.82Z"/><path d="M37.73,40.59a1.47,1.47,0,0,0,1-1.79l-1.46-5.66a1.41,1.41,0,0,0-1.73-1,1.45,1.45,0,0,0-1.05,1.41,1.61,1.61,0,0,0,.05.38L36,39.56A1.41,1.41,0,0,0,37.73,40.59Z"/><path d="M40.32,44.46a1.47,1.47,0,0,0-2.88.38,1.4,1.4,0,0,0,.05.38L38.24,48a1.47,1.47,0,0,0,2.83-.76Z"/><path d="M69.7,67.77A11.34,11.34,0,0,0,58.53,58a11.92,11.92,0,0,0-1.58.11l-14.44,2a11.31,11.31,0,0,0-9.61,12.75l2,14.44a11.34,11.34,0,0,0,11.18,9.72A12,12,0,0,0,47.68,97l14.44-2a11.31,11.31,0,0,0,9.61-12.75Zm-8,24.1-14.44,2A8.16,8.16,0,0,1,38,87L36,72.51a8.17,8.17,0,0,1,7-9.23l14.44-2a8.17,8.17,0,0,1,9.23,6.95l2,14.44A8.17,8.17,0,0,1,61.68,91.87Z"/><path d="M61.48,77.23a1.43,1.43,0,0,0,1.17-1.63l-.77-5.71a1.38,1.38,0,0,0-1.55-1.23,1.42,1.42,0,0,0-1.18,1.42,1.77,1.77,0,0,0,0,.2L59.93,76A1.38,1.38,0,0,0,61.48,77.23Z"/><path d="M63.5,81.55a1.37,1.37,0,0,0-2.73.19,1.62,1.62,0,0,0,0,.19l.38,2.72a1.37,1.37,0,1,0,2.71-.38Z"/></svg>