<?xml version="1.0" encoding="UTF-8"?><svg id="Layer_1" xmlns="http://www.w3.org/2000/svg" viewBox="0 0 50 50"><defs><style>.cls-1{fill:none;stroke:#000;stroke-miterlimit:10;stroke-width:.59px;}</style></defs><rect class="cls-1" x=".5" y=".5" width="49" height="49"/><path d="m4.58,10.25c0-.65.12-1.27.37-1.85s.58-1.08,1.01-1.51c.43-.42.92-.76,1.5-1.01.57-.25,1.19-.37,1.86-.37s1.33.12,1.91.35c.58.23,1.08.56,1.5.97s.74.91.98,1.5c.23.59.35,1.23.35,1.92s-.12,1.28-.37,1.86c-.25.57-.58,1.07-1.01,1.5-.42.42-.92.76-1.5,1.01-.57.25-1.19.37-1.86.37s-1.33-.12-1.91-.35c-.58-.23-1.08-.56-1.5-.97s-.74-.91-.98-1.49c-.23-.58-.35-1.22-.35-1.93Zm2-.7c0,.52.06,1.06.17,1.61.11.55.29,1.05.52,1.5.23.45.53.81.9,1.1s.81.43,1.34.43c.81,0,1.43-.28,1.88-.85s.67-1.3.67-2.19c0-.52-.05-1.07-.16-1.65-.11-.57-.28-1.1-.51-1.57-.23-.47-.54-.87-.91-1.18-.38-.31-.84-.47-1.39-.47-.75,0-1.36.26-1.82.78s-.69,1.34-.69,2.47Z"/><path d="m23.86,13.52c0,.21.13.37.38.48.25.11.54.19.85.24.13.03.19.11.19.25,0,.09-.01.2-.04.34-.37-.03-.73-.05-1.08-.07-.35-.02-.74-.03-1.15-.03-.38,0-.76.01-1.14.03-.38.02-.75.05-1.12.07-.03-.14-.04-.25-.04-.34,0-.14.06-.23.19-.25.3-.06.57-.14.81-.24.24-.11.36-.27.36-.48v-4.16c0-.35-.02-.68-.06-.98-.04-.3-.12-.56-.24-.78s-.28-.39-.49-.51c-.2-.12-.47-.18-.79-.18-.35,0-.7.06-1.04.18-.34.12-.64.3-.9.53-.26.23-.47.52-.62.86s-.23.73-.23,1.17v3.86c0,.21.12.37.37.48.25.11.51.19.8.24.13.03.19.11.19.25,0,.09-.01.2-.04.34-.37-.03-.73-.05-1.09-.07s-.73-.03-1.13-.03-.81.01-1.18.03c-.37.02-.73.05-1.08.07-.03-.14-.04-.25-.04-.34,0-.14.06-.23.19-.25.31-.06.59-.14.85-.24.25-.11.38-.27.38-.5v-5.78c0-.42-.07-.73-.22-.91s-.47-.3-.97-.34c-.18-.03-.28-.13-.28-.3,0-.07.01-.16.04-.28.18,0,.44-.01.77-.03.33-.02.61-.05.82-.07.33-.06.62-.12.88-.18.26-.06.44-.1.56-.1.2,0,.3.11.3.32,0,.2-.02.44-.06.71-.04.28-.06.64-.06,1.09.61-.68,1.19-1.2,1.75-1.57.56-.37,1.17-.55,1.83-.55.86,0,1.51.25,1.94.75s.65,1.2.65,2.09v5.16Z"/><path d="m9.55,28.82c.07-.07.13-.11.18-.13.05-.01.09-.02.12-.02.13,0,.24.09.34.28-.37.41-.76.74-1.19,1-.42.25-.88.38-1.36.38-.28,0-.55-.03-.81-.1-.26-.06-.47-.19-.66-.37-.18-.18-.33-.43-.44-.75-.11-.32-.16-.73-.16-1.24v-5.86h-1.27v-.23c0-.1.02-.19.05-.28.04-.09.11-.13.22-.13.38,0,.69-.1.93-.3s.44-.45.59-.76c.17-.34.32-.66.45-.96.13-.3.27-.45.43-.45h.38v2.21h2.48c0,.3-.03.52-.1.67-.06.15-.18.22-.35.22h-2.04v5.27c0,.45.02.82.06,1.09.04.28.11.49.19.64.08.15.18.24.3.29.11.04.24.06.38.06.24,0,.46-.05.67-.16.2-.11.4-.23.58-.37Z"/><path d="m13.33,22.96s.16-.16.36-.38.46-.47.78-.72c.32-.26.68-.49,1.09-.69s.86-.31,1.36-.31c.34,0,.67.05.98.15.31.1.58.26.82.49.23.23.42.52.56.87.14.35.21.79.21,1.32v5.18c0,.21.13.37.38.48.25.11.54.19.87.24.11.03.17.11.17.25,0,.09-.01.2-.04.34-.37-.03-.73-.05-1.07-.07-.35-.02-.74-.03-1.17-.03-.37,0-.75.01-1.12.03-.38.02-.75.05-1.12.07-.03-.14-.04-.25-.04-.34,0-.14.06-.23.19-.25.13-.01.26-.04.39-.08.13-.04.26-.09.37-.15.11-.06.21-.12.29-.2s.12-.17.12-.29v-4.16c0-.35-.02-.68-.06-.98-.04-.3-.12-.56-.24-.78s-.28-.39-.49-.51c-.2-.12-.47-.18-.79-.18-.35,0-.7.06-1.04.18-.34.12-.64.3-.9.53-.26.23-.47.52-.62.86s-.23.73-.23,1.17v3.86c0,.21.12.37.36.48.24.11.51.19.81.24.13.03.19.11.19.25,0,.09-.01.2-.04.34-.37-.03-.73-.05-1.09-.07-.35-.02-.73-.03-1.13-.03s-.81.01-1.18.03c-.37.02-.73.05-1.08.07-.03-.14-.04-.25-.04-.34,0-.14.06-.23.17-.25.33-.06.62-.14.87-.24.26-.11.38-.27.38-.5v-11.43c0-.45-.09-.76-.26-.91-.17-.16-.51-.26-1.02-.32-.18-.03-.28-.13-.28-.3,0-.09.01-.18.04-.3.18,0,.44-.01.76-.03.33-.02.62-.05.89-.07.33-.04.62-.1.88-.17.26-.07.44-.11.56-.11.13,0,.21.03.26.09s.07.13.07.23c0,.24-.02.52-.06.84s-.06.69-.06,1.12v5.48Z"/><path d="m28.88,28.1c.1-.1.2-.15.32-.15.14,0,.28.12.4.36-.18.26-.4.5-.64.74s-.53.46-.86.65c-.33.19-.71.34-1.14.46-.42.11-.91.17-1.46.17s-1.1-.09-1.61-.28-.96-.47-1.35-.85c-.39-.38-.7-.86-.93-1.42-.23-.57-.35-1.23-.35-2,0-.72.14-1.39.41-2,.28-.61.63-1.13,1.07-1.56s.92-.77,1.45-1.01c.53-.24,1.04-.36,1.54-.36,1.32,0,2.28.38,2.88,1.15.6.76.9,1.76.9,2.99,0,.08-.04.13-.13.13l-6.14.28c0,.55.08,1.06.23,1.53.15.47.37.87.66,1.21.28.34.62.61,1.03.8s.86.29,1.37.29c.45,0,.89-.11,1.3-.32.42-.21.77-.48,1.05-.81Zm-3.43-6.48c-.71,0-1.25.28-1.65.83-.39.55-.59,1.27-.59,2.17l3.99-.19c.21,0,.32-.09.32-.28,0-.27-.04-.55-.13-.85-.08-.3-.21-.57-.38-.82s-.38-.45-.64-.62c-.26-.16-.57-.24-.92-.24Z"/><path d="m10.65,35.03c.41,0,.71.1.91.3s.3.42.3.66c0,.08-.01.16-.04.23-.03.07-.1.15-.2.22-.11.08-.26.17-.45.28-.19.11-.46.24-.8.39-.13-.16-.28-.29-.46-.4-.18-.11-.37-.17-.58-.17-.24,0-.46.07-.66.2-.2.13-.37.32-.51.55-.14.23-.25.5-.33.81-.08.3-.12.62-.12.94v3.65c0,.31.16.54.49.69.33.15.79.27,1.4.35.14.03.21.11.21.25,0,.09-.01.2-.04.34-.16-.01-.35-.02-.58-.03-.23,0-.48-.02-.73-.03-.25-.01-.52-.02-.79-.03-.27,0-.52-.01-.75-.01-.39,0-.79.01-1.2.03-.41.02-.8.05-1.17.07-.03-.14-.04-.25-.04-.34,0-.14.06-.23.19-.25.33-.06.61-.14.86-.25s.37-.28.37-.49v-5.39c0-.3-.02-.54-.05-.74-.04-.2-.1-.36-.18-.48-.09-.12-.21-.21-.37-.27-.16-.06-.37-.1-.63-.13-.18-.03-.28-.12-.28-.28,0-.09.01-.18.04-.3.18,0,.44-.01.77-.03s.61-.05.82-.07c.32-.06.59-.12.83-.18.24-.06.41-.1.53-.1.2,0,.3.11.3.32v1.42c.45-.5.91-.91,1.37-1.24.46-.33.98-.5,1.56-.5Z"/><path d="m11.1,39.75c0-.65.12-1.27.37-1.85s.58-1.08,1.01-1.51c.43-.42.92-.76,1.5-1.01.57-.25,1.19-.37,1.86-.37s1.33.12,1.91.35c.58.23,1.08.56,1.5.97s.74.91.98,1.5c.23.59.35,1.23.35,1.92s-.12,1.28-.37,1.86c-.25.57-.58,1.07-1.01,1.5-.42.42-.92.76-1.5,1.01-.57.25-1.19.37-1.86.37s-1.33-.12-1.91-.35c-.58-.23-1.08-.56-1.5-.97s-.74-.91-.98-1.49c-.23-.58-.35-1.22-.35-1.93Zm2-.7c0,.52.06,1.06.17,1.61.11.55.29,1.05.52,1.5.23.45.53.81.9,1.1s.81.43,1.34.43c.81,0,1.43-.28,1.88-.85s.67-1.3.67-2.19c0-.52-.05-1.07-.16-1.65-.11-.57-.28-1.1-.51-1.57-.23-.47-.54-.87-.91-1.18-.38-.31-.84-.47-1.39-.47-.75,0-1.36.26-1.82.78s-.69,1.34-.69,2.47Z"/><path d="m25.31,35.82c-.67,0-1.21.29-1.62.87-.42.58-.63,1.37-.63,2.36,0,1.37.31,2.44.92,3.21s1.43,1.15,2.45,1.15c.45,0,.83-.07,1.14-.21.3-.14.57-.28.8-.43.04-.03.09-.06.15-.1.06-.04.11-.05.17-.05.07,0,.15.05.23.15.08.1.14.18.17.23-.14.17-.32.34-.53.51-.21.17-.47.33-.76.48s-.65.27-1.05.36c-.4.09-.86.14-1.37.14-.58,0-1.13-.1-1.65-.29-.52-.19-.97-.48-1.36-.86-.39-.38-.7-.86-.92-1.43-.23-.57-.34-1.24-.34-2.01,0-.72.14-1.38.41-1.99.28-.6.63-1.11,1.06-1.54.43-.42.91-.76,1.44-1,.53-.24,1.05-.36,1.56-.36s1,.06,1.42.17c.42.11.79.26,1.08.45.3.18.53.4.69.65.16.25.24.51.24.78,0,.08-.07.16-.21.21-.14.06-.3.1-.48.14-.18.04-.35.06-.51.07-.16.01-.26.02-.29.02-.18,0-.33-.09-.44-.27-.11-.18-.22-.37-.35-.57-.13-.21-.3-.4-.52-.57-.22-.18-.53-.27-.92-.27Z"/><path d="m32.08,43c0,.21.11.37.34.48.23.11.5.19.83.27.13.03.19.11.19.25,0,.09-.01.2-.04.34-.37-.03-.73-.05-1.07-.07s-.72-.03-1.12-.03-.81.01-1.19.03-.74.05-1.1.07c-.03-.14-.04-.25-.04-.34,0-.14.06-.23.17-.25.3-.06.58-.14.85-.24.27-.11.4-.27.4-.5v-11.43c0-.45-.09-.76-.26-.92-.17-.16-.51-.26-1.02-.31-.18-.03-.28-.13-.28-.3,0-.09.01-.18.04-.3.18,0,.44-.01.76-.03.33-.02.62-.05.89-.07.33-.04.62-.1.88-.17s.44-.11.56-.11c.13,0,.21.03.26.09.04.06.06.13.06.23,0,.24-.02.52-.06.84s-.06.69-.06,1.12v7.6s3.19-2.82,3.19-2.82c.13-.07.19-.18.19-.32,0-.1-.05-.16-.16-.19-.11-.03-.22-.05-.35-.07s-.24-.06-.35-.11c-.11-.05-.16-.14-.16-.27,0-.06.01-.14.04-.25.09,0,.32.01.7.03.38.02.79.03,1.21.03s.81-.01,1.15-.03c.34-.02.56-.03.66-.03,0,.01.01.05.03.1.02.05.03.1.03.16,0,.09-.02.16-.07.23-.05.07-.12.11-.22.11-.33.03-.59.08-.8.16-.21.08-.35.15-.43.22l-2.97,2.68,3.44,3.99c.28.34.56.56.83.65.27.09.52.15.76.18.14,0,.21.08.21.25,0,.04,0,.11-.02.19-.01.08-.03.16-.04.21-.96-.04-1.95-.06-2.97-.06l-3.87-4.67h-.02v3.4Z"/><path d="m44.8,37.62c-.11,0-.19-.02-.24-.07-.05-.05-.08-.1-.1-.16-.1-.58-.33-.99-.69-1.24-.36-.25-.81-.37-1.35-.37-.41,0-.78.12-1.09.35-.32.23-.48.56-.48.97,0,.37.14.68.43.92.29.25.82.49,1.58.73.41.13.79.27,1.14.42.35.16.64.34.89.56.25.22.44.49.58.81.14.32.21.7.21,1.14,0,.37-.07.72-.2,1.06-.13.34-.34.64-.62.89-.28.25-.62.46-1.04.62s-.92.23-1.5.23c-.45,0-.96-.05-1.52-.16s-1.07-.29-1.52-.54c-.03-.37-.05-.75-.07-1.16-.02-.4-.03-.81-.03-1.22h.21c.14,0,.26.02.36.07.1.05.16.13.17.24.06.59.29,1.07.69,1.43.4.36.97.54,1.69.54.58,0,1.03-.13,1.34-.39.31-.26.47-.62.47-1.07s-.17-.82-.51-1.07-.84-.47-1.51-.67c-.84-.25-1.49-.59-1.96-1-.47-.41-.71-1.01-.71-1.8,0-.37.07-.71.21-1.04.14-.33.34-.61.6-.85.25-.24.57-.43.93-.57.37-.14.78-.21,1.23-.21.57,0,1.1.07,1.6.22.5.15.9.31,1.18.48.01.11.03.25.04.41.01.16.02.33.03.51,0,.18.01.35.02.53,0,.18.01.34.01.48l-.49-.02Z"/></svg>